<?xml version="1.0" encoding="UTF-8" standalone="no"?>
<!DOCTYPE svg PUBLIC "-//W3C//DTD SVG 1.1//EN"
 "http://www.w3.org/Graphics/SVG/1.1/DTD/svg11.dtd">
<!-- Generated by graphviz version 2.47.0 (20210316.0004)
 -->
<!-- Title: dependencies Pages: 1 -->
<svg width="504pt" height="211pt"
 viewBox="0.00 0.00 504.00 211.00" xmlns="http://www.w3.org/2000/svg" xmlns:xlink="http://www.w3.org/1999/xlink">
<g id="graph0" class="graph" transform="scale(1 1) rotate(0) translate(4 207)">
<title>dependencies</title>
<polygon fill="white" stroke="transparent" points="-4,4 -4,-207 500,-207 500,4 -4,4"/>
<text text-anchor="start" x="227.01" y="-42.4" font-family="Times-12" font-weight="bold" font-size="14.00">Legend</text>
<polygon fill="#ffffb3" stroke="transparent" points="14,-10 14,-30 34,-30 34,-10 14,-10"/>
<text text-anchor="start" x="37.63" y="-15.4" font-family="Times-12" font-size="14.00"> &#160;Declarations</text>
<polygon fill="#8dd3c7" stroke="transparent" points="127,-10 127,-30 147,-30 147,-10 127,-10"/>
<text text-anchor="start" x="150.73" y="-15.4" font-family="Times-12" font-size="14.00"> &#160;Module</text>
<polygon fill="#80b1d3" stroke="transparent" points="213,-10 213,-30 233,-30 233,-10 213,-10"/>
<text text-anchor="start" x="236.78" y="-15.4" font-family="Times-12" font-size="14.00"> &#160;Bootstrap</text>
<polygon fill="#fdb462" stroke="transparent" points="310,-10 310,-30 330,-30 330,-10 310,-10"/>
<text text-anchor="start" x="333.67" y="-15.4" font-family="Times-12" font-size="14.00"> &#160;Providers</text>
<polygon fill="#fb8072" stroke="transparent" points="406,-10 406,-30 426,-30 426,-10 406,-10"/>
<text text-anchor="start" x="429.73" y="-15.4" font-family="Times-12" font-size="14.00"> &#160;Exports</text>
<g id="clust1" class="cluster">
<title>cluster_LegalModule</title>
<polygon fill="none" stroke="black" stroke-dasharray="1,5" points="80,-70 80,-195 416,-195 416,-70 80,-70"/>
</g>
<g id="clust2" class="cluster">
<title>cluster_LegalModule_declarations</title>
<polygon fill="none" stroke="black" points="248,-78 248,-130 408,-130 408,-78 248,-78"/>
</g>
<g id="clust4" class="cluster">
<title>cluster_LegalModule_imports</title>
<polygon fill="none" stroke="black" points="88,-78 88,-130 240,-130 240,-78 88,-78"/>
</g>
<!-- AboutPageComponent -->
<g id="node1" class="node">
<title>AboutPageComponent</title>
<polygon fill="#ffffb3" stroke="black" points="399.54,-122 256.46,-122 256.46,-86 399.54,-86 399.54,-122"/>
<text text-anchor="middle" x="328" y="-99.8" font-family="Times,serif" font-size="14.00">AboutPageComponent</text>
</g>
<!-- LegalModule -->
<g id="node2" class="node">
<title>LegalModule</title>
<polygon fill="#8dd3c7" stroke="black" points="291.92,-187 288.92,-191 267.92,-191 264.92,-187 200.08,-187 200.08,-151 291.92,-151 291.92,-187"/>
<text text-anchor="middle" x="246" y="-164.8" font-family="Times,serif" font-size="14.00">LegalModule</text>
</g>
<!-- AboutPageComponent&#45;&gt;LegalModule -->
<g id="edge1" class="edge">
<title>AboutPageComponent&#45;&gt;LegalModule</title>
<path fill="none" stroke="black" d="M273.97,-122.11C273.97,-122.11 273.97,-140.99 273.97,-140.99"/>
<polygon fill="black" stroke="black" points="270.47,-140.99 273.97,-150.99 277.47,-140.99 270.47,-140.99"/>
</g>
<!-- LegalRoutingModule -->
<g id="node3" class="node">
<title>LegalRoutingModule</title>
<polygon fill="#8dd3c7" stroke="black" points="232.04,-122 229.04,-126 208.04,-126 205.04,-122 95.96,-122 95.96,-86 232.04,-86 232.04,-122"/>
<text text-anchor="middle" x="164" y="-99.8" font-family="Times,serif" font-size="14.00">LegalRoutingModule</text>
</g>
<!-- LegalRoutingModule&#45;&gt;LegalModule -->
<g id="edge2" class="edge">
<title>LegalRoutingModule&#45;&gt;LegalModule</title>
<path fill="none" stroke="black" d="M216.28,-122.11C216.28,-122.11 216.28,-140.99 216.28,-140.99"/>
<polygon fill="black" stroke="black" points="212.78,-140.99 216.28,-150.99 219.78,-140.99 212.78,-140.99"/>
</g>
</g>
</svg>
