<?xml version="1.0" encoding="UTF-8" standalone="no"?>
<!DOCTYPE svg PUBLIC "-//W3C//DTD SVG 1.1//EN"
 "http://www.w3.org/Graphics/SVG/1.1/DTD/svg11.dtd">
<!-- Generated by graphviz version 2.47.0 (20210316.0004)
 -->
<!-- Title: dependencies Pages: 1 -->
<svg width="504pt" height="211pt"
 viewBox="0.00 0.00 504.00 211.00" xmlns="http://www.w3.org/2000/svg" xmlns:xlink="http://www.w3.org/1999/xlink">
<g id="graph0" class="graph" transform="scale(1 1) rotate(0) translate(4 207)">
<title>dependencies</title>
<polygon fill="white" stroke="transparent" points="-4,4 -4,-207 500,-207 500,4 -4,4"/>
<text text-anchor="start" x="227.01" y="-42.4" font-family="Times-12" font-weight="bold" font-size="14.00">Legend</text>
<polygon fill="#ffffb3" stroke="transparent" points="14,-10 14,-30 34,-30 34,-10 14,-10"/>
<text text-anchor="start" x="37.63" y="-15.4" font-family="Times-12" font-size="14.00"> &#160;Declarations</text>
<polygon fill="#8dd3c7" stroke="transparent" points="127,-10 127,-30 147,-30 147,-10 127,-10"/>
<text text-anchor="start" x="150.73" y="-15.4" font-family="Times-12" font-size="14.00"> &#160;Module</text>
<polygon fill="#80b1d3" stroke="transparent" points="213,-10 213,-30 233,-30 233,-10 213,-10"/>
<text text-anchor="start" x="236.78" y="-15.4" font-family="Times-12" font-size="14.00"> &#160;Bootstrap</text>
<polygon fill="#fdb462" stroke="transparent" points="310,-10 310,-30 330,-30 330,-10 310,-10"/>
<text text-anchor="start" x="333.67" y="-15.4" font-family="Times-12" font-size="14.00"> &#160;Providers</text>
<polygon fill="#fb8072" stroke="transparent" points="406,-10 406,-30 426,-30 426,-10 406,-10"/>
<text text-anchor="start" x="429.73" y="-15.4" font-family="Times-12" font-size="14.00"> &#160;Exports</text>
<g id="clust1" class="cluster">
<title>cluster_LegalModule</title>
<polygon fill="none" stroke="black" stroke-dasharray="1,5" points="80,-70 80,-195 416,-195 416,-70 80,-70"/>
</g>
<g id="clust4" class="cluster">
<title>cluster_LegalModule_imports</title>
<polygon fill="none" stroke="black" points="256,-78 256,-130 408,-130 408,-78 256,-78"/>
</g>
<g id="clust2" class="cluster">
<title>cluster_LegalModule_declarations</title>
<polygon fill="none" stroke="black" points="88,-78 88,-130 248,-130 248,-78 88,-78"/>
</g>
<!-- AboutPageComponent -->
<g id="node1" class="node">
<title>AboutPageComponent</title>
<polygon fill="#ffffb3" stroke="black" points="239.54,-122 96.46,-122 96.46,-86 239.54,-86 239.54,-122"/>
<text text-anchor="middle" x="168" y="-99.8" font-family="Times,serif" font-size="14.00">AboutPageComponent</text>
</g>
<!-- LegalModule -->
<g id="node2" class="node">
<title>LegalModule</title>
<polygon fill="#8dd3c7" stroke="black" points="295.92,-187 292.92,-191 271.92,-191 268.92,-187 204.08,-187 204.08,-151 295.92,-151 295.92,-187"/>
<text text-anchor="middle" x="250" y="-164.8" font-family="Times,serif" font-size="14.00">LegalModule</text>
</g>
<!-- AboutPageComponent&#45;&gt;LegalModule -->
<g id="edge1" class="edge">
<title>AboutPageComponent&#45;&gt;LegalModule</title>
<path fill="none" stroke="black" d="M222.03,-122.11C222.03,-122.11 222.03,-140.99 222.03,-140.99"/>
<polygon fill="black" stroke="black" points="218.53,-140.99 222.03,-150.99 225.53,-140.99 218.53,-140.99"/>
</g>
<!-- LegalRoutingModule -->
<g id="node3" class="node">
<title>LegalRoutingModule</title>
<polygon fill="#8dd3c7" stroke="black" points="400.04,-122 397.04,-126 376.04,-126 373.04,-122 263.96,-122 263.96,-86 400.04,-86 400.04,-122"/>
<text text-anchor="middle" x="332" y="-99.8" font-family="Times,serif" font-size="14.00">LegalRoutingModule</text>
</g>
<!-- LegalRoutingModule&#45;&gt;LegalModule -->
<g id="edge2" class="edge">
<title>LegalRoutingModule&#45;&gt;LegalModule</title>
<path fill="none" stroke="black" d="M279.72,-122.11C279.72,-122.11 279.72,-140.99 279.72,-140.99"/>
<polygon fill="black" stroke="black" points="276.22,-140.99 279.72,-150.99 283.22,-140.99 276.22,-140.99"/>
</g>
</g>
</svg>
