<?xml version="1.0" encoding="UTF-8" standalone="no"?>
<!DOCTYPE svg PUBLIC "-//W3C//DTD SVG 1.1//EN"
 "http://www.w3.org/Graphics/SVG/1.1/DTD/svg11.dtd">
<!-- Generated by graphviz version 2.47.0 (20210316.0004)
 -->
<!-- Title: dependencies Pages: 1 -->
<svg width="1802pt" height="366pt"
 viewBox="0.00 0.00 1802.00 366.00" xmlns="http://www.w3.org/2000/svg" xmlns:xlink="http://www.w3.org/1999/xlink">
<g id="graph0" class="graph" transform="scale(1 1) rotate(0) translate(4 362)">
<title>dependencies</title>
<polygon fill="white" stroke="transparent" points="-4,4 -4,-362 1798,-362 1798,4 -4,4"/>
<text text-anchor="start" x="876.01" y="-42.4" font-family="Times-12" font-weight="bold" font-size="14.00">Legend</text>
<polygon fill="#ffffb3" stroke="transparent" points="663,-10 663,-30 683,-30 683,-10 663,-10"/>
<text text-anchor="start" x="686.63" y="-15.4" font-family="Times-12" font-size="14.00"> &#160;Declarations</text>
<polygon fill="#8dd3c7" stroke="transparent" points="776,-10 776,-30 796,-30 796,-10 776,-10"/>
<text text-anchor="start" x="799.73" y="-15.4" font-family="Times-12" font-size="14.00"> &#160;Module</text>
<polygon fill="#80b1d3" stroke="transparent" points="862,-10 862,-30 882,-30 882,-10 862,-10"/>
<text text-anchor="start" x="885.78" y="-15.4" font-family="Times-12" font-size="14.00"> &#160;Bootstrap</text>
<polygon fill="#fdb462" stroke="transparent" points="959,-10 959,-30 979,-30 979,-10 959,-10"/>
<text text-anchor="start" x="982.67" y="-15.4" font-family="Times-12" font-size="14.00"> &#160;Providers</text>
<polygon fill="#fb8072" stroke="transparent" points="1055,-10 1055,-30 1075,-30 1075,-10 1055,-10"/>
<text text-anchor="start" x="1078.73" y="-15.4" font-family="Times-12" font-size="14.00"> &#160;Exports</text>
<g id="clust1" class="cluster">
<title>cluster_AppModule</title>
<polygon fill="none" stroke="black" stroke-dasharray="1,5" points="463,-146 463,-350 1372,-350 1372,-146 463,-146"/>
</g>
<g id="clust2" class="cluster">
<title>cluster_AppModule_declarations</title>
<polygon fill="none" stroke="black" points="471,-154 471,-206 761,-206 761,-154 471,-154"/>
</g>
<g id="clust5" class="cluster">
<title>cluster_AppModule_imports</title>
<polygon fill="none" stroke="black" points="769,-154 769,-206 1364,-206 1364,-154 769,-154"/>
</g>
<g id="clust7" class="cluster">
<title>cluster_AppModule_bootstrap</title>
<polygon fill="none" stroke="black" points="893,-290 893,-342 1017,-342 1017,-290 893,-290"/>
</g>
<g id="clust15" class="cluster">
<title>cluster_CoreModule</title>
<polygon fill="none" stroke="black" stroke-dasharray="1,5" points="1380,-214 1380,-282 1786,-282 1786,-214 1380,-214"/>
</g>
<g id="clust16" class="cluster">
<title>cluster_CoreModule_declarations</title>
<polygon fill="none" stroke="black" points="1588,-222 1588,-274 1778,-274 1778,-222 1588,-222"/>
</g>
<g id="clust19" class="cluster">
<title>cluster_CoreModule_exports</title>
<polygon fill="none" stroke="black" points="1388,-222 1388,-274 1580,-274 1580,-222 1388,-222"/>
</g>
<g id="clust22" class="cluster">
<title>cluster_CustomerModule</title>
<polygon fill="none" stroke="black" stroke-dasharray="1,5" points="8,-70 8,-138 1111,-138 1111,-70 8,-70"/>
</g>
<g id="clust23" class="cluster">
<title>cluster_CustomerModule_declarations</title>
<polygon fill="none" stroke="black" points="200,-78 200,-130 1103,-130 1103,-78 200,-78"/>
</g>
<g id="clust29" class="cluster">
<title>cluster_CustomerModule_imports</title>
<polygon fill="none" stroke="black" points="16,-78 16,-130 192,-130 192,-78 16,-78"/>
</g>
<g id="clust39" class="cluster">
<title>cluster_LegalModule</title>
<polygon fill="none" stroke="black" stroke-dasharray="1,5" points="1119,-70 1119,-138 1455,-138 1455,-70 1119,-70"/>
</g>
<g id="clust40" class="cluster">
<title>cluster_LegalModule_declarations</title>
<polygon fill="none" stroke="black" points="1287,-78 1287,-130 1447,-130 1447,-78 1287,-78"/>
</g>
<g id="clust42" class="cluster">
<title>cluster_LegalModule_imports</title>
<polygon fill="none" stroke="black" points="1127,-78 1127,-130 1279,-130 1279,-78 1127,-78"/>
</g>
<g id="clust52" class="cluster">
<title>cluster_StartModule</title>
<polygon fill="none" stroke="black" stroke-dasharray="1,5" points="1463,-70 1463,-138 1629,-138 1629,-70 1463,-70"/>
</g>
<g id="clust53" class="cluster">
<title>cluster_StartModule_declarations</title>
<polygon fill="none" stroke="black" points="1471,-78 1471,-130 1621,-130 1621,-78 1471,-78"/>
</g>
<!-- AppComponent -->
<g id="node1" class="node">
<title>AppComponent</title>
<polygon fill="#ffffb3" stroke="black" points="752.94,-198 647.06,-198 647.06,-162 752.94,-162 752.94,-198"/>
<text text-anchor="middle" x="700" y="-175.8" font-family="Times,serif" font-size="14.00">AppComponent</text>
</g>
<!-- AppModule -->
<g id="node3" class="node">
<title>AppModule</title>
<polygon fill="#8dd3c7" stroke="black" points="996.66,-266 993.66,-270 972.66,-270 969.66,-266 913.34,-266 913.34,-230 996.66,-230 996.66,-266"/>
<text text-anchor="middle" x="955" y="-243.8" font-family="Times,serif" font-size="14.00">AppModule</text>
</g>
<!-- AppComponent&#45;&gt;AppModule -->
<g id="edge1" class="edge">
<title>AppComponent&#45;&gt;AppModule</title>
<path fill="none" stroke="black" d="M700,-198.22C700,-218.37 700,-248 700,-248 700,-248 903.18,-248 903.18,-248"/>
<polygon fill="black" stroke="black" points="903.18,-251.5 913.18,-248 903.18,-244.5 903.18,-251.5"/>
</g>
<!-- DefaultPageComponent -->
<g id="node2" class="node">
<title>DefaultPageComponent</title>
<polygon fill="#ffffb3" stroke="black" points="629.02,-198 478.98,-198 478.98,-162 629.02,-162 629.02,-198"/>
<text text-anchor="middle" x="554" y="-175.8" font-family="Times,serif" font-size="14.00">DefaultPageComponent</text>
</g>
<!-- DefaultPageComponent&#45;&gt;AppModule -->
<g id="edge2" class="edge">
<title>DefaultPageComponent&#45;&gt;AppModule</title>
<path fill="none" stroke="black" d="M554,-198.25C554,-221.02 554,-257 554,-257 554,-257 903.22,-257 903.22,-257"/>
<polygon fill="black" stroke="black" points="903.22,-260.5 913.22,-257 903.22,-253.5 903.22,-260.5"/>
</g>
<!-- AppComponent  -->
<g id="node9" class="node">
<title>AppComponent </title>
<polygon fill="#80b1d3" stroke="black" points="1009.44,-334 900.56,-334 900.56,-298 1009.44,-298 1009.44,-334"/>
<text text-anchor="middle" x="955" y="-311.8" font-family="Times,serif" font-size="14.00">AppComponent </text>
</g>
<!-- AppModule&#45;&gt;AppComponent  -->
<g id="edge8" class="edge">
<title>AppModule&#45;&gt;AppComponent </title>
<path fill="none" stroke="black" stroke-dasharray="1,5" d="M955,-266.22C955,-266.22 955,-287.73 955,-287.73"/>
<polygon fill="black" stroke="black" points="951.5,-287.73 955,-297.73 958.5,-287.73 951.5,-287.73"/>
</g>
<!-- AppRoutingModule -->
<g id="node4" class="node">
<title>AppRoutingModule</title>
<polygon fill="#8dd3c7" stroke="black" points="1251.27,-198 1248.27,-202 1227.27,-202 1224.27,-198 1122.73,-198 1122.73,-162 1251.27,-162 1251.27,-198"/>
<text text-anchor="middle" x="1187" y="-175.8" font-family="Times,serif" font-size="14.00">AppRoutingModule</text>
</g>
<!-- AppRoutingModule&#45;&gt;AppModule -->
<g id="edge3" class="edge">
<title>AppRoutingModule&#45;&gt;AppModule</title>
<path fill="none" stroke="black" d="M1187,-198.22C1187,-218.37 1187,-248 1187,-248 1187,-248 1006.74,-248 1006.74,-248"/>
<polygon fill="black" stroke="black" points="1006.74,-244.5 996.74,-248 1006.74,-251.5 1006.74,-244.5"/>
</g>
<!-- CoreModule -->
<g id="node5" class="node">
<title>CoreModule</title>
<polygon fill="#8dd3c7" stroke="black" points="1356.26,-198 1353.26,-202 1332.26,-202 1329.26,-198 1269.74,-198 1269.74,-162 1356.26,-162 1356.26,-198"/>
<text text-anchor="middle" x="1313" y="-175.8" font-family="Times,serif" font-size="14.00">CoreModule</text>
</g>
<!-- CoreModule&#45;&gt;AppModule -->
<g id="edge4" class="edge">
<title>CoreModule&#45;&gt;AppModule</title>
<path fill="none" stroke="black" d="M1313,-198.25C1313,-221.02 1313,-257 1313,-257 1313,-257 1006.77,-257 1006.77,-257"/>
<polygon fill="black" stroke="black" points="1006.77,-253.5 996.77,-257 1006.77,-260.5 1006.77,-253.5"/>
</g>
<!-- MainNavigationComponent  -->
<g id="node11" class="node">
<title>MainNavigationComponent </title>
<polygon fill="#fb8072" stroke="black" points="1572.09,-266 1395.91,-266 1395.91,-230 1572.09,-230 1572.09,-266"/>
<text text-anchor="middle" x="1484" y="-243.8" font-family="Times,serif" font-size="14.00">MainNavigationComponent </text>
</g>
<!-- CoreModule&#45;&gt;MainNavigationComponent  -->
<g id="edge10" class="edge">
<title>CoreModule&#45;&gt;MainNavigationComponent </title>
<path fill="none" stroke="black" stroke-dasharray="5,2" d="M1356.3,-186C1384.94,-186 1417.24,-186 1417.24,-186 1417.24,-186 1417.24,-219.73 1417.24,-219.73"/>
<polygon fill="black" stroke="black" points="1413.74,-219.73 1417.24,-229.73 1420.74,-219.73 1413.74,-219.73"/>
</g>
<!-- CustomerModule -->
<g id="node6" class="node">
<title>CustomerModule</title>
<polygon fill="#8dd3c7" stroke="black" points="890.99,-198 887.99,-202 866.99,-202 863.99,-198 777.01,-198 777.01,-162 890.99,-162 890.99,-198"/>
<text text-anchor="middle" x="834" y="-175.8" font-family="Times,serif" font-size="14.00">CustomerModule</text>
</g>
<!-- CustomerModule&#45;&gt;AppModule -->
<g id="edge5" class="edge">
<title>CustomerModule&#45;&gt;AppModule</title>
<path fill="none" stroke="black" d="M834,-198.02C834,-215.37 834,-239 834,-239 834,-239 903.02,-239 903.02,-239"/>
<polygon fill="black" stroke="black" points="903.02,-242.5 913.02,-239 903.02,-235.5 903.02,-242.5"/>
</g>
<!-- LegalModule -->
<g id="node7" class="node">
<title>LegalModule</title>
<polygon fill="#8dd3c7" stroke="black" points="1000.92,-198 997.92,-202 976.92,-202 973.92,-198 909.08,-198 909.08,-162 1000.92,-162 1000.92,-198"/>
<text text-anchor="middle" x="955" y="-175.8" font-family="Times,serif" font-size="14.00">LegalModule</text>
</g>
<!-- LegalModule&#45;&gt;AppModule -->
<g id="edge6" class="edge">
<title>LegalModule&#45;&gt;AppModule</title>
<path fill="none" stroke="black" d="M955,-198.22C955,-198.22 955,-219.73 955,-219.73"/>
<polygon fill="black" stroke="black" points="951.5,-219.73 955,-229.73 958.5,-219.73 951.5,-219.73"/>
</g>
<!-- StartModule -->
<g id="node8" class="node">
<title>StartModule</title>
<polygon fill="#8dd3c7" stroke="black" points="1104.99,-198 1101.99,-202 1080.99,-202 1077.99,-198 1019.01,-198 1019.01,-162 1104.99,-162 1104.99,-198"/>
<text text-anchor="middle" x="1062" y="-175.8" font-family="Times,serif" font-size="14.00">StartModule</text>
</g>
<!-- StartModule&#45;&gt;AppModule -->
<g id="edge7" class="edge">
<title>StartModule&#45;&gt;AppModule</title>
<path fill="none" stroke="black" d="M1062,-198.02C1062,-215.37 1062,-239 1062,-239 1062,-239 1006.68,-239 1006.68,-239"/>
<polygon fill="black" stroke="black" points="1006.68,-235.5 996.68,-239 1006.68,-242.5 1006.68,-235.5"/>
</g>
<!-- MainNavigationComponent -->
<g id="node10" class="node">
<title>MainNavigationComponent</title>
<polygon fill="#ffffb3" stroke="black" points="1769.59,-266 1596.41,-266 1596.41,-230 1769.59,-230 1769.59,-266"/>
<text text-anchor="middle" x="1683" y="-243.8" font-family="Times,serif" font-size="14.00">MainNavigationComponent</text>
</g>
<!-- MainNavigationComponent&#45;&gt;CoreModule -->
<g id="edge9" class="edge">
<title>MainNavigationComponent&#45;&gt;CoreModule</title>
<path fill="none" stroke="black" d="M1604.97,-229.71C1604.97,-207.79 1604.97,-174 1604.97,-174 1604.97,-174 1366.4,-174 1366.4,-174"/>
<polygon fill="black" stroke="black" points="1366.4,-170.5 1356.4,-174 1366.4,-177.5 1366.4,-170.5"/>
</g>
<!-- CustomerEditComponent -->
<g id="node12" class="node">
<title>CustomerEditComponent</title>
<polygon fill="#ffffb3" stroke="black" points="1094.6,-122 935.4,-122 935.4,-86 1094.6,-86 1094.6,-122"/>
<text text-anchor="middle" x="1015" y="-99.8" font-family="Times,serif" font-size="14.00">CustomerEditComponent</text>
</g>
<!-- CustomerEditComponent&#45;&gt;CustomerModule -->
<g id="edge11" class="edge">
<title>CustomerEditComponent&#45;&gt;CustomerModule</title>
<path fill="none" stroke="black" d="M951.76,-122.12C951.76,-124.97 951.76,-127 951.76,-127 951.76,-127 874.71,-127 874.71,-127 874.71,-127 874.71,-151.76 874.71,-151.76"/>
<polygon fill="black" stroke="black" points="871.21,-151.76 874.71,-161.76 878.21,-151.76 871.21,-151.76"/>
</g>
<!-- CustomerIndexComponent -->
<g id="node13" class="node">
<title>CustomerIndexComponent</title>
<polygon fill="#ffffb3" stroke="black" points="917.65,-122 750.35,-122 750.35,-86 917.65,-86 917.65,-122"/>
<text text-anchor="middle" x="834" y="-99.8" font-family="Times,serif" font-size="14.00">CustomerIndexComponent</text>
</g>
<!-- CustomerIndexComponent&#45;&gt;CustomerModule -->
<g id="edge12" class="edge">
<title>CustomerIndexComponent&#45;&gt;CustomerModule</title>
<path fill="none" stroke="black" d="M858.43,-122.01C858.43,-122.01 858.43,-151.85 858.43,-151.85"/>
<polygon fill="black" stroke="black" points="854.93,-151.85 858.43,-161.85 861.93,-151.85 854.93,-151.85"/>
</g>
<!-- CustomerListComponent -->
<g id="node14" class="node">
<title>CustomerListComponent</title>
<polygon fill="#ffffb3" stroke="black" points="731.55,-122 574.45,-122 574.45,-86 731.55,-86 731.55,-122"/>
<text text-anchor="middle" x="653" y="-99.8" font-family="Times,serif" font-size="14.00">CustomerListComponent</text>
</g>
<!-- CustomerListComponent&#45;&gt;CustomerModule -->
<g id="edge13" class="edge">
<title>CustomerListComponent&#45;&gt;CustomerModule</title>
<path fill="none" stroke="black" d="M689.53,-122.1C689.53,-133.09 689.53,-145 689.53,-145 689.53,-145 842.14,-145 842.14,-145 842.14,-145 842.14,-151.68 842.14,-151.68"/>
<polygon fill="black" stroke="black" points="838.64,-151.68 842.14,-161.68 845.64,-151.68 838.64,-151.68"/>
</g>
<!-- CustomerNewComponent -->
<g id="node15" class="node">
<title>CustomerNewComponent</title>
<polygon fill="#ffffb3" stroke="black" points="556.2,-122 393.8,-122 393.8,-86 556.2,-86 556.2,-122"/>
<text text-anchor="middle" x="475" y="-99.8" font-family="Times,serif" font-size="14.00">CustomerNewComponent</text>
</g>
<!-- CustomerNewComponent&#45;&gt;CustomerModule -->
<g id="edge14" class="edge">
<title>CustomerNewComponent&#45;&gt;CustomerModule</title>
<path fill="none" stroke="black" d="M517.42,-122.04C517.42,-134.56 517.42,-149 517.42,-149 517.42,-149 825.86,-149 825.86,-149 825.86,-149 825.86,-151.97 825.86,-151.97"/>
<polygon fill="black" stroke="black" points="822.36,-151.97 825.86,-161.97 829.36,-151.97 822.36,-151.97"/>
</g>
<!-- CustomerTableComponent -->
<g id="node16" class="node">
<title>CustomerTableComponent</title>
<polygon fill="#ffffb3" stroke="black" points="375.64,-122 208.36,-122 208.36,-86 375.64,-86 375.64,-122"/>
<text text-anchor="middle" x="292" y="-99.8" font-family="Times,serif" font-size="14.00">CustomerTableComponent</text>
</g>
<!-- CustomerTableComponent&#45;&gt;CustomerModule -->
<g id="edge15" class="edge">
<title>CustomerTableComponent&#45;&gt;CustomerModule</title>
<path fill="none" stroke="black" d="M292,-122.05C292,-136.37 292,-154 292,-154 292,-154 809.57,-154 809.57,-154 809.57,-154 809.57,-154.79 809.57,-154.79"/>
<polygon fill="black" stroke="black" points="806.07,-151.94 809.57,-161.94 813.07,-151.94 806.07,-151.94"/>
</g>
<!-- CustomerRoutingModule -->
<g id="node17" class="node">
<title>CustomerRoutingModule</title>
<polygon fill="#8dd3c7" stroke="black" points="183.61,-122 180.61,-126 159.61,-126 156.61,-122 24.39,-122 24.39,-86 183.61,-86 183.61,-122"/>
<text text-anchor="middle" x="104" y="-99.8" font-family="Times,serif" font-size="14.00">CustomerRoutingModule</text>
</g>
<!-- CustomerRoutingModule&#45;&gt;CustomerModule -->
<g id="edge16" class="edge">
<title>CustomerRoutingModule&#45;&gt;CustomerModule</title>
<path fill="none" stroke="black" d="M104,-122.28C104,-137.95 104,-158 104,-158 104,-158 793.29,-158 793.29,-158 793.29,-158 793.29,-158.38 793.29,-158.38"/>
<polygon fill="black" stroke="black" points="789.79,-151.83 793.29,-161.83 796.79,-151.83 789.79,-151.83"/>
</g>
<!-- AboutPageComponent -->
<g id="node18" class="node">
<title>AboutPageComponent</title>
<polygon fill="#ffffb3" stroke="black" points="1438.54,-122 1295.46,-122 1295.46,-86 1438.54,-86 1438.54,-122"/>
<text text-anchor="middle" x="1367" y="-99.8" font-family="Times,serif" font-size="14.00">AboutPageComponent</text>
</g>
<!-- AboutPageComponent&#45;&gt;LegalModule -->
<g id="edge17" class="edge">
<title>AboutPageComponent&#45;&gt;LegalModule</title>
<path fill="none" stroke="black" d="M1325.81,-122.24C1325.81,-129.43 1325.81,-136 1325.81,-136 1325.81,-136 984.4,-136 984.4,-136 984.4,-136 984.4,-151.85 984.4,-151.85"/>
<polygon fill="black" stroke="black" points="980.9,-151.85 984.4,-161.85 987.9,-151.85 980.9,-151.85"/>
</g>
<!-- LegalRoutingModule -->
<g id="node19" class="node">
<title>LegalRoutingModule</title>
<polygon fill="#8dd3c7" stroke="black" points="1271.04,-122 1268.04,-126 1247.04,-126 1244.04,-122 1134.96,-122 1134.96,-86 1271.04,-86 1271.04,-122"/>
<text text-anchor="middle" x="1203" y="-99.8" font-family="Times,serif" font-size="14.00">LegalRoutingModule</text>
</g>
<!-- LegalRoutingModule&#45;&gt;LegalModule -->
<g id="edge18" class="edge">
<title>LegalRoutingModule&#45;&gt;LegalModule</title>
<path fill="none" stroke="black" d="M1193.06,-122.16C1193.06,-127.04 1193.06,-131 1193.06,-131 1193.06,-131 968.08,-131 968.08,-131 968.08,-131 968.08,-151.75 968.08,-151.75"/>
<polygon fill="black" stroke="black" points="964.58,-151.75 968.08,-161.75 971.58,-151.75 964.58,-151.75"/>
</g>
<!-- StartPageComponent -->
<g id="node20" class="node">
<title>StartPageComponent</title>
<polygon fill="#ffffb3" stroke="black" points="1613.48,-122 1478.52,-122 1478.52,-86 1613.48,-86 1613.48,-122"/>
<text text-anchor="middle" x="1546" y="-99.8" font-family="Times,serif" font-size="14.00">StartPageComponent</text>
</g>
<!-- StartPageComponent&#45;&gt;StartModule -->
<g id="edge19" class="edge">
<title>StartPageComponent&#45;&gt;StartModule</title>
<path fill="none" stroke="black" d="M1525.4,-122.42C1525.4,-131.28 1525.4,-140 1525.4,-140 1525.4,-140 1099.77,-140 1099.77,-140 1099.77,-140 1099.77,-151.87 1099.77,-151.87"/>
<polygon fill="black" stroke="black" points="1096.27,-151.87 1099.77,-161.87 1103.27,-151.87 1096.27,-151.87"/>
</g>
</g>
</svg>
