<?xml version="1.0" encoding="UTF-8" standalone="no"?>
<!DOCTYPE svg PUBLIC "-//W3C//DTD SVG 1.1//EN"
 "http://www.w3.org/Graphics/SVG/1.1/DTD/svg11.dtd">
<!-- Generated by graphviz version 2.47.0 (20210316.0004)
 -->
<!-- Title: dependencies Pages: 1 -->
<svg width="714pt" height="360pt"
 viewBox="0.00 0.00 714.00 360.00" xmlns="http://www.w3.org/2000/svg" xmlns:xlink="http://www.w3.org/1999/xlink">
<g id="graph0" class="graph" transform="scale(1 1) rotate(0) translate(4 356)">
<title>dependencies</title>
<polygon fill="white" stroke="transparent" points="-4,4 -4,-356 710,-356 710,4 -4,4"/>
<text text-anchor="start" x="332.01" y="-42.4" font-family="Times-12" font-weight="bold" font-size="14.00">Legend</text>
<polygon fill="#ffffb3" stroke="transparent" points="119,-10 119,-30 139,-30 139,-10 119,-10"/>
<text text-anchor="start" x="142.63" y="-15.4" font-family="Times-12" font-size="14.00"> &#160;Declarations</text>
<polygon fill="#8dd3c7" stroke="transparent" points="232,-10 232,-30 252,-30 252,-10 232,-10"/>
<text text-anchor="start" x="255.73" y="-15.4" font-family="Times-12" font-size="14.00"> &#160;Module</text>
<polygon fill="#80b1d3" stroke="transparent" points="318,-10 318,-30 338,-30 338,-10 318,-10"/>
<text text-anchor="start" x="341.78" y="-15.4" font-family="Times-12" font-size="14.00"> &#160;Bootstrap</text>
<polygon fill="#fdb462" stroke="transparent" points="415,-10 415,-30 435,-30 435,-10 415,-10"/>
<text text-anchor="start" x="438.67" y="-15.4" font-family="Times-12" font-size="14.00"> &#160;Providers</text>
<polygon fill="#fb8072" stroke="transparent" points="511,-10 511,-30 531,-30 531,-10 511,-10"/>
<text text-anchor="start" x="534.73" y="-15.4" font-family="Times-12" font-size="14.00"> &#160;Exports</text>
<g id="clust1" class="cluster">
<title>cluster_AppModule</title>
<polygon fill="none" stroke="black" stroke-dasharray="1,5" points="194,-146 194,-344 698,-344 698,-146 194,-146"/>
</g>
<g id="clust2" class="cluster">
<title>cluster_AppModule_declarations</title>
<polygon fill="none" stroke="black" points="568,-154 568,-206 690,-206 690,-154 568,-154"/>
</g>
<g id="clust4" class="cluster">
<title>cluster_AppModule_imports</title>
<polygon fill="none" stroke="black" points="202,-154 202,-206 560,-206 560,-154 202,-154"/>
</g>
<g id="clust6" class="cluster">
<title>cluster_AppModule_bootstrap</title>
<polygon fill="none" stroke="black" points="363,-284 363,-336 487,-336 487,-284 363,-284"/>
</g>
<g id="clust14" class="cluster">
<title>cluster_LegalModule</title>
<polygon fill="none" stroke="black" stroke-dasharray="1,5" points="8,-70 8,-138 344,-138 344,-70 8,-70"/>
</g>
<g id="clust15" class="cluster">
<title>cluster_LegalModule_declarations</title>
<polygon fill="none" stroke="black" points="176,-78 176,-130 336,-130 336,-78 176,-78"/>
</g>
<g id="clust17" class="cluster">
<title>cluster_LegalModule_imports</title>
<polygon fill="none" stroke="black" points="16,-78 16,-130 168,-130 168,-78 16,-78"/>
</g>
<g id="clust27" class="cluster">
<title>cluster_StartModule</title>
<polygon fill="none" stroke="black" stroke-dasharray="1,5" points="352,-70 352,-138 518,-138 518,-70 352,-70"/>
</g>
<g id="clust28" class="cluster">
<title>cluster_StartModule_declarations</title>
<polygon fill="none" stroke="black" points="360,-78 360,-130 510,-130 510,-78 360,-78"/>
</g>
<!-- AppComponent -->
<g id="node1" class="node">
<title>AppComponent</title>
<polygon fill="#ffffb3" stroke="black" points="681.94,-198 576.06,-198 576.06,-162 681.94,-162 681.94,-198"/>
<text text-anchor="middle" x="629" y="-175.8" font-family="Times,serif" font-size="14.00">AppComponent</text>
</g>
<!-- AppModule -->
<g id="node2" class="node">
<title>AppModule</title>
<polygon fill="#8dd3c7" stroke="black" points="466.66,-263 463.66,-267 442.66,-267 439.66,-263 383.34,-263 383.34,-227 466.66,-227 466.66,-263"/>
<text text-anchor="middle" x="425" y="-240.8" font-family="Times,serif" font-size="14.00">AppModule</text>
</g>
<!-- AppComponent&#45;&gt;AppModule -->
<g id="edge1" class="edge">
<title>AppComponent&#45;&gt;AppModule</title>
<path fill="none" stroke="black" d="M629,-198.11C629,-217.34 629,-245 629,-245 629,-245 476.77,-245 476.77,-245"/>
<polygon fill="black" stroke="black" points="476.77,-241.5 466.77,-245 476.77,-248.5 476.77,-241.5"/>
</g>
<!-- AppComponent  -->
<g id="node6" class="node">
<title>AppComponent </title>
<polygon fill="#80b1d3" stroke="black" points="479.44,-328 370.56,-328 370.56,-292 479.44,-292 479.44,-328"/>
<text text-anchor="middle" x="425" y="-305.8" font-family="Times,serif" font-size="14.00">AppComponent </text>
</g>
<!-- AppModule&#45;&gt;AppComponent  -->
<g id="edge5" class="edge">
<title>AppModule&#45;&gt;AppComponent </title>
<path fill="none" stroke="black" stroke-dasharray="1,5" d="M425,-263.11C425,-263.11 425,-281.99 425,-281.99"/>
<polygon fill="black" stroke="black" points="421.5,-281.99 425,-291.99 428.5,-281.99 421.5,-281.99"/>
</g>
<!-- AppRoutingModule -->
<g id="node3" class="node">
<title>AppRoutingModule</title>
<polygon fill="#8dd3c7" stroke="black" points="552.27,-198 549.27,-202 528.27,-202 525.27,-198 423.73,-198 423.73,-162 552.27,-162 552.27,-198"/>
<text text-anchor="middle" x="488" y="-175.8" font-family="Times,serif" font-size="14.00">AppRoutingModule</text>
</g>
<!-- AppRoutingModule&#45;&gt;AppModule -->
<g id="edge2" class="edge">
<title>AppRoutingModule&#45;&gt;AppModule</title>
<path fill="none" stroke="black" d="M445.22,-198.11C445.22,-198.11 445.22,-216.99 445.22,-216.99"/>
<polygon fill="black" stroke="black" points="441.72,-216.99 445.22,-226.99 448.72,-216.99 441.72,-216.99"/>
</g>
<!-- LegalModule -->
<g id="node4" class="node">
<title>LegalModule</title>
<polygon fill="#8dd3c7" stroke="black" points="301.92,-198 298.92,-202 277.92,-202 274.92,-198 210.08,-198 210.08,-162 301.92,-162 301.92,-198"/>
<text text-anchor="middle" x="256" y="-175.8" font-family="Times,serif" font-size="14.00">LegalModule</text>
</g>
<!-- LegalModule&#45;&gt;AppModule -->
<g id="edge3" class="edge">
<title>LegalModule&#45;&gt;AppModule</title>
<path fill="none" stroke="black" d="M256,-198.11C256,-217.34 256,-245 256,-245 256,-245 373.22,-245 373.22,-245"/>
<polygon fill="black" stroke="black" points="373.22,-248.5 383.22,-245 373.22,-241.5 373.22,-248.5"/>
</g>
<!-- StartModule -->
<g id="node5" class="node">
<title>StartModule</title>
<polygon fill="#8dd3c7" stroke="black" points="405.99,-198 402.99,-202 381.99,-202 378.99,-198 320.01,-198 320.01,-162 405.99,-162 405.99,-198"/>
<text text-anchor="middle" x="363" y="-175.8" font-family="Times,serif" font-size="14.00">StartModule</text>
</g>
<!-- StartModule&#45;&gt;AppModule -->
<g id="edge4" class="edge">
<title>StartModule&#45;&gt;AppModule</title>
<path fill="none" stroke="black" d="M394.58,-198.11C394.58,-198.11 394.58,-216.99 394.58,-216.99"/>
<polygon fill="black" stroke="black" points="391.08,-216.99 394.58,-226.99 398.08,-216.99 391.08,-216.99"/>
</g>
<!-- AboutPageComponent -->
<g id="node7" class="node">
<title>AboutPageComponent</title>
<polygon fill="#ffffb3" stroke="black" points="327.54,-122 184.46,-122 184.46,-86 327.54,-86 327.54,-122"/>
<text text-anchor="middle" x="256" y="-99.8" font-family="Times,serif" font-size="14.00">AboutPageComponent</text>
</g>
<!-- AboutPageComponent&#45;&gt;LegalModule -->
<g id="edge6" class="edge">
<title>AboutPageComponent&#45;&gt;LegalModule</title>
<path fill="none" stroke="black" d="M256,-122.01C256,-122.01 256,-151.85 256,-151.85"/>
<polygon fill="black" stroke="black" points="252.5,-151.85 256,-161.85 259.5,-151.85 252.5,-151.85"/>
</g>
<!-- LegalRoutingModule -->
<g id="node8" class="node">
<title>LegalRoutingModule</title>
<polygon fill="#8dd3c7" stroke="black" points="160.04,-122 157.04,-126 136.04,-126 133.04,-122 23.96,-122 23.96,-86 160.04,-86 160.04,-122"/>
<text text-anchor="middle" x="92" y="-99.8" font-family="Times,serif" font-size="14.00">LegalRoutingModule</text>
</g>
<!-- LegalRoutingModule&#45;&gt;LegalModule -->
<g id="edge7" class="edge">
<title>LegalRoutingModule&#45;&gt;LegalModule</title>
<path fill="none" stroke="black" d="M92,-122.01C92,-144.49 92,-180 92,-180 92,-180 199.88,-180 199.88,-180"/>
<polygon fill="black" stroke="black" points="199.88,-183.5 209.88,-180 199.88,-176.5 199.88,-183.5"/>
</g>
<!-- StartPageComponent -->
<g id="node9" class="node">
<title>StartPageComponent</title>
<polygon fill="#ffffb3" stroke="black" points="502.48,-122 367.52,-122 367.52,-86 502.48,-86 502.48,-122"/>
<text text-anchor="middle" x="435" y="-99.8" font-family="Times,serif" font-size="14.00">StartPageComponent</text>
</g>
<!-- StartPageComponent&#45;&gt;StartModule -->
<g id="edge8" class="edge">
<title>StartPageComponent&#45;&gt;StartModule</title>
<path fill="none" stroke="black" d="M386.75,-122.01C386.75,-122.01 386.75,-151.85 386.75,-151.85"/>
<polygon fill="black" stroke="black" points="383.25,-151.85 386.75,-161.85 390.25,-151.85 383.25,-151.85"/>
</g>
</g>
</svg>
