<?xml version="1.0" encoding="UTF-8" standalone="no"?>
<!DOCTYPE svg PUBLIC "-//W3C//DTD SVG 1.1//EN"
 "http://www.w3.org/Graphics/SVG/1.1/DTD/svg11.dtd">
<!-- Generated by graphviz version 2.47.0 (20210316.0004)
 -->
<!-- Title: dependencies Pages: 1 -->
<svg width="933pt" height="284pt"
 viewBox="0.00 0.00 933.00 284.00" xmlns="http://www.w3.org/2000/svg" xmlns:xlink="http://www.w3.org/1999/xlink">
<g id="graph0" class="graph" transform="scale(1 1) rotate(0) translate(4 280)">
<title>dependencies</title>
<polygon fill="white" stroke="transparent" points="-4,4 -4,-280 929,-280 929,4 -4,4"/>
<text text-anchor="start" x="441.51" y="-42.4" font-family="Times-12" font-weight="bold" font-size="14.00">Legend</text>
<polygon fill="#ffffb3" stroke="transparent" points="228.5,-10 228.5,-30 248.5,-30 248.5,-10 228.5,-10"/>
<text text-anchor="start" x="252.13" y="-15.4" font-family="Times-12" font-size="14.00"> &#160;Declarations</text>
<polygon fill="#8dd3c7" stroke="transparent" points="341.5,-10 341.5,-30 361.5,-30 361.5,-10 341.5,-10"/>
<text text-anchor="start" x="365.23" y="-15.4" font-family="Times-12" font-size="14.00"> &#160;Module</text>
<polygon fill="#80b1d3" stroke="transparent" points="427.5,-10 427.5,-30 447.5,-30 447.5,-10 427.5,-10"/>
<text text-anchor="start" x="451.28" y="-15.4" font-family="Times-12" font-size="14.00"> &#160;Bootstrap</text>
<polygon fill="#fdb462" stroke="transparent" points="524.5,-10 524.5,-30 544.5,-30 544.5,-10 524.5,-10"/>
<text text-anchor="start" x="548.17" y="-15.4" font-family="Times-12" font-size="14.00"> &#160;Providers</text>
<polygon fill="#fb8072" stroke="transparent" points="620.5,-10 620.5,-30 640.5,-30 640.5,-10 620.5,-10"/>
<text text-anchor="start" x="644.23" y="-15.4" font-family="Times-12" font-size="14.00"> &#160;Exports</text>
<g id="clust1" class="cluster">
<title>cluster_AppModule</title>
<polygon fill="none" stroke="black" stroke-dasharray="1,5" points="8,-70 8,-268 917,-268 917,-70 8,-70"/>
</g>
<g id="clust7" class="cluster">
<title>cluster_AppModule_bootstrap</title>
<polygon fill="none" stroke="black" points="410,-208 410,-260 534,-260 534,-208 410,-208"/>
</g>
<g id="clust5" class="cluster">
<title>cluster_AppModule_imports</title>
<polygon fill="none" stroke="black" points="314,-78 314,-130 909,-130 909,-78 314,-78"/>
</g>
<g id="clust2" class="cluster">
<title>cluster_AppModule_declarations</title>
<polygon fill="none" stroke="black" points="16,-78 16,-130 306,-130 306,-78 16,-78"/>
</g>
<!-- AppComponent -->
<g id="node1" class="node">
<title>AppComponent</title>
<polygon fill="#ffffb3" stroke="black" points="297.94,-122 192.06,-122 192.06,-86 297.94,-86 297.94,-122"/>
<text text-anchor="middle" x="245" y="-99.8" font-family="Times,serif" font-size="14.00">AppComponent</text>
</g>
<!-- AppModule -->
<g id="node3" class="node">
<title>AppModule</title>
<polygon fill="#8dd3c7" stroke="black" points="513.66,-187 510.66,-191 489.66,-191 486.66,-187 430.34,-187 430.34,-151 513.66,-151 513.66,-187"/>
<text text-anchor="middle" x="472" y="-164.8" font-family="Times,serif" font-size="14.00">AppModule</text>
</g>
<!-- AppComponent&#45;&gt;AppModule -->
<g id="edge1" class="edge">
<title>AppComponent&#45;&gt;AppModule</title>
<path fill="none" stroke="black" d="M245,-122.11C245,-141.34 245,-169 245,-169 245,-169 420.1,-169 420.1,-169"/>
<polygon fill="black" stroke="black" points="420.1,-172.5 430.1,-169 420.1,-165.5 420.1,-172.5"/>
</g>
<!-- DefaultPageComponent -->
<g id="node2" class="node">
<title>DefaultPageComponent</title>
<polygon fill="#ffffb3" stroke="black" points="174.02,-122 23.98,-122 23.98,-86 174.02,-86 174.02,-122"/>
<text text-anchor="middle" x="99" y="-99.8" font-family="Times,serif" font-size="14.00">DefaultPageComponent</text>
</g>
<!-- DefaultPageComponent&#45;&gt;AppModule -->
<g id="edge2" class="edge">
<title>DefaultPageComponent&#45;&gt;AppModule</title>
<path fill="none" stroke="black" d="M99,-122.29C99,-144.21 99,-178 99,-178 99,-178 420.3,-178 420.3,-178"/>
<polygon fill="black" stroke="black" points="420.3,-181.5 430.3,-178 420.3,-174.5 420.3,-181.5"/>
</g>
<!-- AppComponent  -->
<g id="node9" class="node">
<title>AppComponent </title>
<polygon fill="#80b1d3" stroke="black" points="526.44,-252 417.56,-252 417.56,-216 526.44,-216 526.44,-252"/>
<text text-anchor="middle" x="472" y="-229.8" font-family="Times,serif" font-size="14.00">AppComponent </text>
</g>
<!-- AppModule&#45;&gt;AppComponent  -->
<g id="edge8" class="edge">
<title>AppModule&#45;&gt;AppComponent </title>
<path fill="none" stroke="black" stroke-dasharray="1,5" d="M472,-187.11C472,-187.11 472,-205.99 472,-205.99"/>
<polygon fill="black" stroke="black" points="468.5,-205.99 472,-215.99 475.5,-205.99 468.5,-205.99"/>
</g>
<!-- AppRoutingModule -->
<g id="node4" class="node">
<title>AppRoutingModule</title>
<polygon fill="#8dd3c7" stroke="black" points="901.27,-122 898.27,-126 877.27,-126 874.27,-122 772.73,-122 772.73,-86 901.27,-86 901.27,-122"/>
<text text-anchor="middle" x="837" y="-99.8" font-family="Times,serif" font-size="14.00">AppRoutingModule</text>
</g>
<!-- AppRoutingModule&#45;&gt;AppModule -->
<g id="edge3" class="edge">
<title>AppRoutingModule&#45;&gt;AppModule</title>
<path fill="none" stroke="black" d="M837,-122.29C837,-144.21 837,-178 837,-178 837,-178 523.87,-178 523.87,-178"/>
<polygon fill="black" stroke="black" points="523.87,-174.5 513.87,-178 523.87,-181.5 523.87,-174.5"/>
</g>
<!-- CoreModule -->
<g id="node5" class="node">
<title>CoreModule</title>
<polygon fill="#8dd3c7" stroke="black" points="754.26,-122 751.26,-126 730.26,-126 727.26,-122 667.74,-122 667.74,-86 754.26,-86 754.26,-122"/>
<text text-anchor="middle" x="711" y="-99.8" font-family="Times,serif" font-size="14.00">CoreModule</text>
</g>
<!-- CoreModule&#45;&gt;AppModule -->
<g id="edge4" class="edge">
<title>CoreModule&#45;&gt;AppModule</title>
<path fill="none" stroke="black" d="M711,-122.11C711,-141.34 711,-169 711,-169 711,-169 523.9,-169 523.9,-169"/>
<polygon fill="black" stroke="black" points="523.9,-165.5 513.9,-169 523.9,-172.5 523.9,-165.5"/>
</g>
<!-- CustomerModule -->
<g id="node6" class="node">
<title>CustomerModule</title>
<polygon fill="#8dd3c7" stroke="black" points="649.99,-122 646.99,-126 625.99,-126 622.99,-122 536.01,-122 536.01,-86 649.99,-86 649.99,-122"/>
<text text-anchor="middle" x="593" y="-99.8" font-family="Times,serif" font-size="14.00">CustomerModule</text>
</g>
<!-- CustomerModule&#45;&gt;AppModule -->
<g id="edge5" class="edge">
<title>CustomerModule&#45;&gt;AppModule</title>
<path fill="none" stroke="black" d="M593,-122.03C593,-138.4 593,-160 593,-160 593,-160 523.98,-160 523.98,-160"/>
<polygon fill="black" stroke="black" points="523.98,-156.5 513.98,-160 523.98,-163.5 523.98,-156.5"/>
</g>
<!-- LegalModule -->
<g id="node7" class="node">
<title>LegalModule</title>
<polygon fill="#8dd3c7" stroke="black" points="517.92,-122 514.92,-126 493.92,-126 490.92,-122 426.08,-122 426.08,-86 517.92,-86 517.92,-122"/>
<text text-anchor="middle" x="472" y="-99.8" font-family="Times,serif" font-size="14.00">LegalModule</text>
</g>
<!-- LegalModule&#45;&gt;AppModule -->
<g id="edge6" class="edge">
<title>LegalModule&#45;&gt;AppModule</title>
<path fill="none" stroke="black" d="M472,-122.11C472,-122.11 472,-140.99 472,-140.99"/>
<polygon fill="black" stroke="black" points="468.5,-140.99 472,-150.99 475.5,-140.99 468.5,-140.99"/>
</g>
<!-- StartModule -->
<g id="node8" class="node">
<title>StartModule</title>
<polygon fill="#8dd3c7" stroke="black" points="407.99,-122 404.99,-126 383.99,-126 380.99,-122 322.01,-122 322.01,-86 407.99,-86 407.99,-122"/>
<text text-anchor="middle" x="365" y="-99.8" font-family="Times,serif" font-size="14.00">StartModule</text>
</g>
<!-- StartModule&#45;&gt;AppModule -->
<g id="edge7" class="edge">
<title>StartModule&#45;&gt;AppModule</title>
<path fill="none" stroke="black" d="M365,-122.03C365,-138.4 365,-160 365,-160 365,-160 420.32,-160 420.32,-160"/>
<polygon fill="black" stroke="black" points="420.32,-163.5 430.32,-160 420.32,-156.5 420.32,-163.5"/>
</g>
</g>
</svg>
