<?xml version="1.0" encoding="UTF-8" standalone="no"?>
<!DOCTYPE svg PUBLIC "-//W3C//DTD SVG 1.1//EN"
 "http://www.w3.org/Graphics/SVG/1.1/DTD/svg11.dtd">
<!-- Generated by graphviz version 2.47.0 (20210316.0004)
 -->
<!-- Title: dependencies Pages: 1 -->
<svg width="933pt" height="284pt"
 viewBox="0.00 0.00 933.00 284.00" xmlns="http://www.w3.org/2000/svg" xmlns:xlink="http://www.w3.org/1999/xlink">
<g id="graph0" class="graph" transform="scale(1 1) rotate(0) translate(4 280)">
<title>dependencies</title>
<polygon fill="white" stroke="transparent" points="-4,4 -4,-280 929,-280 929,4 -4,4"/>
<text text-anchor="start" x="441.51" y="-42.4" font-family="Times-12" font-weight="bold" font-size="14.00">Legend</text>
<polygon fill="#ffffb3" stroke="transparent" points="228.5,-10 228.5,-30 248.5,-30 248.5,-10 228.5,-10"/>
<text text-anchor="start" x="252.13" y="-15.4" font-family="Times-12" font-size="14.00"> &#160;Declarations</text>
<polygon fill="#8dd3c7" stroke="transparent" points="341.5,-10 341.5,-30 361.5,-30 361.5,-10 341.5,-10"/>
<text text-anchor="start" x="365.23" y="-15.4" font-family="Times-12" font-size="14.00"> &#160;Module</text>
<polygon fill="#80b1d3" stroke="transparent" points="427.5,-10 427.5,-30 447.5,-30 447.5,-10 427.5,-10"/>
<text text-anchor="start" x="451.28" y="-15.4" font-family="Times-12" font-size="14.00"> &#160;Bootstrap</text>
<polygon fill="#fdb462" stroke="transparent" points="524.5,-10 524.5,-30 544.5,-30 544.5,-10 524.5,-10"/>
<text text-anchor="start" x="548.17" y="-15.4" font-family="Times-12" font-size="14.00"> &#160;Providers</text>
<polygon fill="#fb8072" stroke="transparent" points="620.5,-10 620.5,-30 640.5,-30 640.5,-10 620.5,-10"/>
<text text-anchor="start" x="644.23" y="-15.4" font-family="Times-12" font-size="14.00"> &#160;Exports</text>
<g id="clust1" class="cluster">
<title>cluster_AppModule</title>
<polygon fill="none" stroke="black" stroke-dasharray="1,5" points="8,-70 8,-268 917,-268 917,-70 8,-70"/>
</g>
<g id="clust2" class="cluster">
<title>cluster_AppModule_declarations</title>
<polygon fill="none" stroke="black" points="619,-78 619,-130 909,-130 909,-78 619,-78"/>
</g>
<g id="clust5" class="cluster">
<title>cluster_AppModule_imports</title>
<polygon fill="none" stroke="black" points="16,-78 16,-130 611,-130 611,-78 16,-78"/>
</g>
<g id="clust7" class="cluster">
<title>cluster_AppModule_bootstrap</title>
<polygon fill="none" stroke="black" points="351,-208 351,-260 475,-260 475,-208 351,-208"/>
</g>
<!-- AppComponent -->
<g id="node1" class="node">
<title>AppComponent</title>
<polygon fill="#ffffb3" stroke="black" points="900.94,-122 795.06,-122 795.06,-86 900.94,-86 900.94,-122"/>
<text text-anchor="middle" x="848" y="-99.8" font-family="Times,serif" font-size="14.00">AppComponent</text>
</g>
<!-- AppModule -->
<g id="node3" class="node">
<title>AppModule</title>
<polygon fill="#8dd3c7" stroke="black" points="454.66,-187 451.66,-191 430.66,-191 427.66,-187 371.34,-187 371.34,-151 454.66,-151 454.66,-187"/>
<text text-anchor="middle" x="413" y="-164.8" font-family="Times,serif" font-size="14.00">AppModule</text>
</g>
<!-- AppComponent&#45;&gt;AppModule -->
<g id="edge1" class="edge">
<title>AppComponent&#45;&gt;AppModule</title>
<path fill="none" stroke="black" d="M848,-122.29C848,-144.21 848,-178 848,-178 848,-178 464.71,-178 464.71,-178"/>
<polygon fill="black" stroke="black" points="464.71,-174.5 454.71,-178 464.71,-181.5 464.71,-174.5"/>
</g>
<!-- DefaultPageComponent -->
<g id="node2" class="node">
<title>DefaultPageComponent</title>
<polygon fill="#ffffb3" stroke="black" points="777.02,-122 626.98,-122 626.98,-86 777.02,-86 777.02,-122"/>
<text text-anchor="middle" x="702" y="-99.8" font-family="Times,serif" font-size="14.00">DefaultPageComponent</text>
</g>
<!-- DefaultPageComponent&#45;&gt;AppModule -->
<g id="edge2" class="edge">
<title>DefaultPageComponent&#45;&gt;AppModule</title>
<path fill="none" stroke="black" d="M702,-122.11C702,-141.34 702,-169 702,-169 702,-169 464.71,-169 464.71,-169"/>
<polygon fill="black" stroke="black" points="464.71,-165.5 454.71,-169 464.71,-172.5 464.71,-165.5"/>
</g>
<!-- AppComponent  -->
<g id="node9" class="node">
<title>AppComponent </title>
<polygon fill="#80b1d3" stroke="black" points="467.44,-252 358.56,-252 358.56,-216 467.44,-216 467.44,-252"/>
<text text-anchor="middle" x="413" y="-229.8" font-family="Times,serif" font-size="14.00">AppComponent </text>
</g>
<!-- AppModule&#45;&gt;AppComponent  -->
<g id="edge8" class="edge">
<title>AppModule&#45;&gt;AppComponent </title>
<path fill="none" stroke="black" stroke-dasharray="1,5" d="M413,-187.11C413,-187.11 413,-205.99 413,-205.99"/>
<polygon fill="black" stroke="black" points="409.5,-205.99 413,-215.99 416.5,-205.99 409.5,-205.99"/>
</g>
<!-- AppRoutingModule -->
<g id="node4" class="node">
<title>AppRoutingModule</title>
<polygon fill="#8dd3c7" stroke="black" points="603.27,-122 600.27,-126 579.27,-126 576.27,-122 474.73,-122 474.73,-86 603.27,-86 603.27,-122"/>
<text text-anchor="middle" x="539" y="-99.8" font-family="Times,serif" font-size="14.00">AppRoutingModule</text>
</g>
<!-- AppRoutingModule&#45;&gt;AppModule -->
<g id="edge3" class="edge">
<title>AppRoutingModule&#45;&gt;AppModule</title>
<path fill="none" stroke="black" d="M539,-122.03C539,-138.4 539,-160 539,-160 539,-160 464.96,-160 464.96,-160"/>
<polygon fill="black" stroke="black" points="464.96,-156.5 454.96,-160 464.96,-163.5 464.96,-156.5"/>
</g>
<!-- CoreModule -->
<g id="node5" class="node">
<title>CoreModule</title>
<polygon fill="#8dd3c7" stroke="black" points="456.26,-122 453.26,-126 432.26,-126 429.26,-122 369.74,-122 369.74,-86 456.26,-86 456.26,-122"/>
<text text-anchor="middle" x="413" y="-99.8" font-family="Times,serif" font-size="14.00">CoreModule</text>
</g>
<!-- CoreModule&#45;&gt;AppModule -->
<g id="edge4" class="edge">
<title>CoreModule&#45;&gt;AppModule</title>
<path fill="none" stroke="black" d="M413,-122.11C413,-122.11 413,-140.99 413,-140.99"/>
<polygon fill="black" stroke="black" points="409.5,-140.99 413,-150.99 416.5,-140.99 409.5,-140.99"/>
</g>
<!-- CustomerModule -->
<g id="node6" class="node">
<title>CustomerModule</title>
<polygon fill="#8dd3c7" stroke="black" points="351.99,-122 348.99,-126 327.99,-126 324.99,-122 238.01,-122 238.01,-86 351.99,-86 351.99,-122"/>
<text text-anchor="middle" x="295" y="-99.8" font-family="Times,serif" font-size="14.00">CustomerModule</text>
</g>
<!-- CustomerModule&#45;&gt;AppModule -->
<g id="edge5" class="edge">
<title>CustomerModule&#45;&gt;AppModule</title>
<path fill="none" stroke="black" d="M295,-122.03C295,-138.4 295,-160 295,-160 295,-160 361.07,-160 361.07,-160"/>
<polygon fill="black" stroke="black" points="361.07,-163.5 371.07,-160 361.07,-156.5 361.07,-163.5"/>
</g>
<!-- LegalModule -->
<g id="node7" class="node">
<title>LegalModule</title>
<polygon fill="#8dd3c7" stroke="black" points="219.92,-122 216.92,-126 195.92,-126 192.92,-122 128.08,-122 128.08,-86 219.92,-86 219.92,-122"/>
<text text-anchor="middle" x="174" y="-99.8" font-family="Times,serif" font-size="14.00">LegalModule</text>
</g>
<!-- LegalModule&#45;&gt;AppModule -->
<g id="edge6" class="edge">
<title>LegalModule&#45;&gt;AppModule</title>
<path fill="none" stroke="black" d="M174,-122.11C174,-141.34 174,-169 174,-169 174,-169 361.1,-169 361.1,-169"/>
<polygon fill="black" stroke="black" points="361.1,-172.5 371.1,-169 361.1,-165.5 361.1,-172.5"/>
</g>
<!-- StartModule -->
<g id="node8" class="node">
<title>StartModule</title>
<polygon fill="#8dd3c7" stroke="black" points="109.99,-122 106.99,-126 85.99,-126 82.99,-122 24.01,-122 24.01,-86 109.99,-86 109.99,-122"/>
<text text-anchor="middle" x="67" y="-99.8" font-family="Times,serif" font-size="14.00">StartModule</text>
</g>
<!-- StartModule&#45;&gt;AppModule -->
<g id="edge7" class="edge">
<title>StartModule&#45;&gt;AppModule</title>
<path fill="none" stroke="black" d="M67,-122.29C67,-144.21 67,-178 67,-178 67,-178 361.26,-178 361.26,-178"/>
<polygon fill="black" stroke="black" points="361.26,-181.5 371.26,-178 361.26,-174.5 361.26,-181.5"/>
</g>
</g>
</svg>
