<?xml version="1.0" encoding="UTF-8" standalone="no"?>
<!DOCTYPE svg PUBLIC "-//W3C//DTD SVG 1.1//EN"
 "http://www.w3.org/Graphics/SVG/1.1/DTD/svg11.dtd">
<!-- Generated by graphviz version 2.47.0 (20210316.0004)
 -->
<!-- Title: dependencies Pages: 1 -->
<svg width="504pt" height="284pt"
 viewBox="0.00 0.00 504.00 284.00" xmlns="http://www.w3.org/2000/svg" xmlns:xlink="http://www.w3.org/1999/xlink">
<g id="graph0" class="graph" transform="scale(1 1) rotate(0) translate(4 280)">
<title>dependencies</title>
<polygon fill="white" stroke="transparent" points="-4,4 -4,-280 500,-280 500,4 -4,4"/>
<text text-anchor="start" x="227.01" y="-42.4" font-family="Times-12" font-weight="bold" font-size="14.00">Legend</text>
<polygon fill="#ffffb3" stroke="transparent" points="14,-10 14,-30 34,-30 34,-10 14,-10"/>
<text text-anchor="start" x="37.63" y="-15.4" font-family="Times-12" font-size="14.00"> &#160;Declarations</text>
<polygon fill="#8dd3c7" stroke="transparent" points="127,-10 127,-30 147,-30 147,-10 127,-10"/>
<text text-anchor="start" x="150.73" y="-15.4" font-family="Times-12" font-size="14.00"> &#160;Module</text>
<polygon fill="#80b1d3" stroke="transparent" points="213,-10 213,-30 233,-30 233,-10 213,-10"/>
<text text-anchor="start" x="236.78" y="-15.4" font-family="Times-12" font-size="14.00"> &#160;Bootstrap</text>
<polygon fill="#fdb462" stroke="transparent" points="310,-10 310,-30 330,-30 330,-10 310,-10"/>
<text text-anchor="start" x="333.67" y="-15.4" font-family="Times-12" font-size="14.00"> &#160;Providers</text>
<polygon fill="#fb8072" stroke="transparent" points="406,-10 406,-30 426,-30 426,-10 406,-10"/>
<text text-anchor="start" x="429.73" y="-15.4" font-family="Times-12" font-size="14.00"> &#160;Exports</text>
<g id="clust1" class="cluster">
<title>cluster_CoreModule</title>
<polygon fill="none" stroke="black" stroke-dasharray="1,5" points="44,-70 44,-268 452,-268 452,-70 44,-70"/>
</g>
<g id="clust6" class="cluster">
<title>cluster_CoreModule_exports</title>
<polygon fill="none" stroke="black" points="52,-208 52,-260 444,-260 444,-208 52,-208"/>
</g>
<g id="clust2" class="cluster">
<title>cluster_CoreModule_declarations</title>
<polygon fill="none" stroke="black" points="55,-78 55,-130 441,-130 441,-78 55,-78"/>
</g>
<!-- LoadingIndicatorComponent -->
<g id="node1" class="node">
<title>LoadingIndicatorComponent</title>
<polygon fill="#ffffb3" stroke="black" points="433.02,-122 254.98,-122 254.98,-86 433.02,-86 433.02,-122"/>
<text text-anchor="middle" x="344" y="-99.8" font-family="Times,serif" font-size="14.00">LoadingIndicatorComponent</text>
</g>
<!-- CoreModule -->
<g id="node3" class="node">
<title>CoreModule</title>
<polygon fill="#8dd3c7" stroke="black" points="193.26,-187 190.26,-191 169.26,-191 166.26,-187 106.74,-187 106.74,-151 193.26,-151 193.26,-187"/>
<text text-anchor="middle" x="150" y="-164.8" font-family="Times,serif" font-size="14.00">CoreModule</text>
</g>
<!-- LoadingIndicatorComponent&#45;&gt;CoreModule -->
<g id="edge1" class="edge">
<title>LoadingIndicatorComponent&#45;&gt;CoreModule</title>
<path fill="none" stroke="black" d="M373.75,-122.02C373.75,-139.37 373.75,-163 373.75,-163 373.75,-163 203.41,-163 203.41,-163"/>
<polygon fill="black" stroke="black" points="203.41,-159.5 193.41,-163 203.41,-166.5 203.41,-159.5"/>
</g>
<!-- MainNavigationComponent -->
<g id="node2" class="node">
<title>MainNavigationComponent</title>
<polygon fill="#ffffb3" stroke="black" points="236.59,-122 63.41,-122 63.41,-86 236.59,-86 236.59,-122"/>
<text text-anchor="middle" x="150" y="-99.8" font-family="Times,serif" font-size="14.00">MainNavigationComponent</text>
</g>
<!-- MainNavigationComponent&#45;&gt;CoreModule -->
<g id="edge2" class="edge">
<title>MainNavigationComponent&#45;&gt;CoreModule</title>
<path fill="none" stroke="black" d="M150,-122.11C150,-122.11 150,-140.99 150,-140.99"/>
<polygon fill="black" stroke="black" points="146.5,-140.99 150,-150.99 153.5,-140.99 146.5,-140.99"/>
</g>
<!-- LoadingIndicatorComponent  -->
<g id="node4" class="node">
<title>LoadingIndicatorComponent </title>
<polygon fill="#fb8072" stroke="black" points="436.02,-252 253.98,-252 253.98,-216 436.02,-216 436.02,-252"/>
<text text-anchor="middle" x="345" y="-229.8" font-family="Times,serif" font-size="14.00">LoadingIndicatorComponent </text>
</g>
<!-- CoreModule&#45;&gt;LoadingIndicatorComponent  -->
<g id="edge3" class="edge">
<title>CoreModule&#45;&gt;LoadingIndicatorComponent </title>
<path fill="none" stroke="black" stroke-dasharray="5,2" d="M193.58,-175C242.24,-175 314.25,-175 314.25,-175 314.25,-175 314.25,-205.98 314.25,-205.98"/>
<polygon fill="black" stroke="black" points="310.75,-205.98 314.25,-215.98 317.75,-205.98 310.75,-205.98"/>
</g>
<!-- MainNavigationComponent  -->
<g id="node5" class="node">
<title>MainNavigationComponent </title>
<polygon fill="#fb8072" stroke="black" points="236.09,-252 59.91,-252 59.91,-216 236.09,-216 236.09,-252"/>
<text text-anchor="middle" x="148" y="-229.8" font-family="Times,serif" font-size="14.00">MainNavigationComponent </text>
</g>
<!-- CoreModule&#45;&gt;MainNavigationComponent  -->
<g id="edge4" class="edge">
<title>CoreModule&#45;&gt;MainNavigationComponent </title>
<path fill="none" stroke="black" stroke-dasharray="5,2" d="M150,-187.11C150,-187.11 150,-205.99 150,-205.99"/>
<polygon fill="black" stroke="black" points="146.5,-205.99 150,-215.99 153.5,-205.99 146.5,-205.99"/>
</g>
</g>
</svg>
