<?xml version="1.0" encoding="UTF-8" standalone="no"?>
<!DOCTYPE svg PUBLIC "-//W3C//DTD SVG 1.1//EN"
 "http://www.w3.org/Graphics/SVG/1.1/DTD/svg11.dtd">
<!-- Generated by graphviz version 2.47.0 (20210316.0004)
 -->
<!-- Title: dependencies Pages: 1 -->
<svg width="1416pt" height="211pt"
 viewBox="0.00 0.00 1416.00 211.00" xmlns="http://www.w3.org/2000/svg" xmlns:xlink="http://www.w3.org/1999/xlink">
<g id="graph0" class="graph" transform="scale(1 1) rotate(0) translate(4 207)">
<title>dependencies</title>
<polygon fill="white" stroke="transparent" points="-4,4 -4,-207 1412,-207 1412,4 -4,4"/>
<text text-anchor="start" x="683.01" y="-42.4" font-family="Times-12" font-weight="bold" font-size="14.00">Legend</text>
<polygon fill="#ffffb3" stroke="transparent" points="470,-10 470,-30 490,-30 490,-10 470,-10"/>
<text text-anchor="start" x="493.63" y="-15.4" font-family="Times-12" font-size="14.00"> &#160;Declarations</text>
<polygon fill="#8dd3c7" stroke="transparent" points="583,-10 583,-30 603,-30 603,-10 583,-10"/>
<text text-anchor="start" x="606.73" y="-15.4" font-family="Times-12" font-size="14.00"> &#160;Module</text>
<polygon fill="#80b1d3" stroke="transparent" points="669,-10 669,-30 689,-30 689,-10 669,-10"/>
<text text-anchor="start" x="692.78" y="-15.4" font-family="Times-12" font-size="14.00"> &#160;Bootstrap</text>
<polygon fill="#fdb462" stroke="transparent" points="766,-10 766,-30 786,-30 786,-10 766,-10"/>
<text text-anchor="start" x="789.67" y="-15.4" font-family="Times-12" font-size="14.00"> &#160;Providers</text>
<polygon fill="#fb8072" stroke="transparent" points="862,-10 862,-30 882,-30 882,-10 862,-10"/>
<text text-anchor="start" x="885.73" y="-15.4" font-family="Times-12" font-size="14.00"> &#160;Exports</text>
<g id="clust1" class="cluster">
<title>cluster_CustomerModule</title>
<polygon fill="none" stroke="black" stroke-dasharray="1,5" points="8,-70 8,-195 1400,-195 1400,-70 8,-70"/>
</g>
<g id="clust9" class="cluster">
<title>cluster_CustomerModule_imports</title>
<polygon fill="none" stroke="black" points="1112,-78 1112,-130 1392,-130 1392,-78 1112,-78"/>
</g>
<g id="clust2" class="cluster">
<title>cluster_CustomerModule_declarations</title>
<polygon fill="none" stroke="black" points="16,-78 16,-130 1104,-130 1104,-78 16,-78"/>
</g>
<!-- CustomerEditComponent -->
<g id="node1" class="node">
<title>CustomerEditComponent</title>
<polygon fill="#ffffb3" stroke="black" points="1095.6,-122 936.4,-122 936.4,-86 1095.6,-86 1095.6,-122"/>
<text text-anchor="middle" x="1016" y="-99.8" font-family="Times,serif" font-size="14.00">CustomerEditComponent</text>
</g>
<!-- CustomerModule -->
<g id="node7" class="node">
<title>CustomerModule</title>
<polygon fill="#8dd3c7" stroke="black" points="798.99,-187 795.99,-191 774.99,-191 771.99,-187 685.01,-187 685.01,-151 798.99,-151 798.99,-187"/>
<text text-anchor="middle" x="742" y="-164.8" font-family="Times,serif" font-size="14.00">CustomerModule</text>
</g>
<!-- CustomerEditComponent&#45;&gt;CustomerModule -->
<g id="edge1" class="edge">
<title>CustomerEditComponent&#45;&gt;CustomerModule</title>
<path fill="none" stroke="black" d="M1016,-122.03C1016,-138.4 1016,-160 1016,-160 1016,-160 809.11,-160 809.11,-160"/>
<polygon fill="black" stroke="black" points="809.11,-156.5 799.11,-160 809.11,-163.5 809.11,-156.5"/>
</g>
<!-- CustomerFormComponent -->
<g id="node2" class="node">
<title>CustomerFormComponent</title>
<polygon fill="#ffffb3" stroke="black" points="918.1,-122 751.9,-122 751.9,-86 918.1,-86 918.1,-122"/>
<text text-anchor="middle" x="835" y="-99.8" font-family="Times,serif" font-size="14.00">CustomerFormComponent</text>
</g>
<!-- CustomerFormComponent&#45;&gt;CustomerModule -->
<g id="edge2" class="edge">
<title>CustomerFormComponent&#45;&gt;CustomerModule</title>
<path fill="none" stroke="black" d="M775.47,-122.11C775.47,-122.11 775.47,-140.99 775.47,-140.99"/>
<polygon fill="black" stroke="black" points="771.97,-140.99 775.47,-150.99 778.97,-140.99 771.97,-140.99"/>
</g>
<!-- CustomerIndexComponent -->
<g id="node3" class="node">
<title>CustomerIndexComponent</title>
<polygon fill="#ffffb3" stroke="black" points="733.65,-122 566.35,-122 566.35,-86 733.65,-86 733.65,-122"/>
<text text-anchor="middle" x="650" y="-99.8" font-family="Times,serif" font-size="14.00">CustomerIndexComponent</text>
</g>
<!-- CustomerIndexComponent&#45;&gt;CustomerModule -->
<g id="edge3" class="edge">
<title>CustomerIndexComponent&#45;&gt;CustomerModule</title>
<path fill="none" stroke="black" d="M709.41,-122.11C709.41,-122.11 709.41,-140.99 709.41,-140.99"/>
<polygon fill="black" stroke="black" points="705.91,-140.99 709.41,-150.99 712.91,-140.99 705.91,-140.99"/>
</g>
<!-- CustomerListComponent -->
<g id="node4" class="node">
<title>CustomerListComponent</title>
<polygon fill="#ffffb3" stroke="black" points="547.55,-122 390.45,-122 390.45,-86 547.55,-86 547.55,-122"/>
<text text-anchor="middle" x="469" y="-99.8" font-family="Times,serif" font-size="14.00">CustomerListComponent</text>
</g>
<!-- CustomerListComponent&#45;&gt;CustomerModule -->
<g id="edge4" class="edge">
<title>CustomerListComponent&#45;&gt;CustomerModule</title>
<path fill="none" stroke="black" d="M469,-122.03C469,-138.4 469,-160 469,-160 469,-160 674.77,-160 674.77,-160"/>
<polygon fill="black" stroke="black" points="674.77,-163.5 684.77,-160 674.77,-156.5 674.77,-163.5"/>
</g>
<!-- CustomerNewComponent -->
<g id="node5" class="node">
<title>CustomerNewComponent</title>
<polygon fill="#ffffb3" stroke="black" points="372.2,-122 209.8,-122 209.8,-86 372.2,-86 372.2,-122"/>
<text text-anchor="middle" x="291" y="-99.8" font-family="Times,serif" font-size="14.00">CustomerNewComponent</text>
</g>
<!-- CustomerNewComponent&#45;&gt;CustomerModule -->
<g id="edge5" class="edge">
<title>CustomerNewComponent&#45;&gt;CustomerModule</title>
<path fill="none" stroke="black" d="M291,-122.11C291,-141.34 291,-169 291,-169 291,-169 674.88,-169 674.88,-169"/>
<polygon fill="black" stroke="black" points="674.88,-172.5 684.88,-169 674.88,-165.5 674.88,-172.5"/>
</g>
<!-- CustomerTableComponent -->
<g id="node6" class="node">
<title>CustomerTableComponent</title>
<polygon fill="#ffffb3" stroke="black" points="191.64,-122 24.36,-122 24.36,-86 191.64,-86 191.64,-122"/>
<text text-anchor="middle" x="108" y="-99.8" font-family="Times,serif" font-size="14.00">CustomerTableComponent</text>
</g>
<!-- CustomerTableComponent&#45;&gt;CustomerModule -->
<g id="edge6" class="edge">
<title>CustomerTableComponent&#45;&gt;CustomerModule</title>
<path fill="none" stroke="black" d="M108,-122.29C108,-144.21 108,-178 108,-178 108,-178 674.9,-178 674.9,-178"/>
<polygon fill="black" stroke="black" points="674.9,-181.5 684.9,-178 674.9,-174.5 674.9,-181.5"/>
</g>
<!-- CoreModule -->
<g id="node8" class="node">
<title>CoreModule</title>
<polygon fill="#8dd3c7" stroke="black" points="1384.26,-122 1381.26,-126 1360.26,-126 1357.26,-122 1297.74,-122 1297.74,-86 1384.26,-86 1384.26,-122"/>
<text text-anchor="middle" x="1341" y="-99.8" font-family="Times,serif" font-size="14.00">CoreModule</text>
</g>
<!-- CoreModule&#45;&gt;CustomerModule -->
<g id="edge7" class="edge">
<title>CoreModule&#45;&gt;CustomerModule</title>
<path fill="none" stroke="black" d="M1341,-122.29C1341,-144.21 1341,-178 1341,-178 1341,-178 809.16,-178 809.16,-178"/>
<polygon fill="black" stroke="black" points="809.16,-174.5 799.16,-178 809.16,-181.5 809.16,-174.5"/>
</g>
<!-- CustomerRoutingModule -->
<g id="node9" class="node">
<title>CustomerRoutingModule</title>
<polygon fill="#8dd3c7" stroke="black" points="1279.61,-122 1276.61,-126 1255.61,-126 1252.61,-122 1120.39,-122 1120.39,-86 1279.61,-86 1279.61,-122"/>
<text text-anchor="middle" x="1200" y="-99.8" font-family="Times,serif" font-size="14.00">CustomerRoutingModule</text>
</g>
<!-- CustomerRoutingModule&#45;&gt;CustomerModule -->
<g id="edge8" class="edge">
<title>CustomerRoutingModule&#45;&gt;CustomerModule</title>
<path fill="none" stroke="black" d="M1200,-122.11C1200,-141.34 1200,-169 1200,-169 1200,-169 809.08,-169 809.08,-169"/>
<polygon fill="black" stroke="black" points="809.08,-165.5 799.08,-169 809.08,-172.5 809.08,-165.5"/>
</g>
</g>
</svg>
