<?xml version="1.0" encoding="UTF-8" standalone="no"?>
<!DOCTYPE svg PUBLIC "-//W3C//DTD SVG 1.1//EN"
 "http://www.w3.org/Graphics/SVG/1.1/DTD/svg11.dtd">
<!-- Generated by graphviz version 2.47.0 (20210316.0004)
 -->
<!-- Title: dependencies Pages: 1 -->
<svg width="1127pt" height="211pt"
 viewBox="0.00 0.00 1127.00 211.00" xmlns="http://www.w3.org/2000/svg" xmlns:xlink="http://www.w3.org/1999/xlink">
<g id="graph0" class="graph" transform="scale(1 1) rotate(0) translate(4 207)">
<title>dependencies</title>
<polygon fill="white" stroke="transparent" points="-4,4 -4,-207 1123,-207 1123,4 -4,4"/>
<text text-anchor="start" x="538.51" y="-42.4" font-family="Times-12" font-weight="bold" font-size="14.00">Legend</text>
<polygon fill="#ffffb3" stroke="transparent" points="325.5,-10 325.5,-30 345.5,-30 345.5,-10 325.5,-10"/>
<text text-anchor="start" x="349.13" y="-15.4" font-family="Times-12" font-size="14.00"> &#160;Declarations</text>
<polygon fill="#8dd3c7" stroke="transparent" points="438.5,-10 438.5,-30 458.5,-30 458.5,-10 438.5,-10"/>
<text text-anchor="start" x="462.23" y="-15.4" font-family="Times-12" font-size="14.00"> &#160;Module</text>
<polygon fill="#80b1d3" stroke="transparent" points="524.5,-10 524.5,-30 544.5,-30 544.5,-10 524.5,-10"/>
<text text-anchor="start" x="548.28" y="-15.4" font-family="Times-12" font-size="14.00"> &#160;Bootstrap</text>
<polygon fill="#fdb462" stroke="transparent" points="621.5,-10 621.5,-30 641.5,-30 641.5,-10 621.5,-10"/>
<text text-anchor="start" x="645.17" y="-15.4" font-family="Times-12" font-size="14.00"> &#160;Providers</text>
<polygon fill="#fb8072" stroke="transparent" points="717.5,-10 717.5,-30 737.5,-30 737.5,-10 717.5,-10"/>
<text text-anchor="start" x="741.23" y="-15.4" font-family="Times-12" font-size="14.00"> &#160;Exports</text>
<g id="clust1" class="cluster">
<title>cluster_CustomerModule</title>
<polygon fill="none" stroke="black" stroke-dasharray="1,5" points="8,-70 8,-195 1111,-195 1111,-70 8,-70"/>
</g>
<g id="clust2" class="cluster">
<title>cluster_CustomerModule_declarations</title>
<polygon fill="none" stroke="black" points="200,-78 200,-130 1103,-130 1103,-78 200,-78"/>
</g>
<g id="clust8" class="cluster">
<title>cluster_CustomerModule_imports</title>
<polygon fill="none" stroke="black" points="16,-78 16,-130 192,-130 192,-78 16,-78"/>
</g>
<!-- CustomerEditComponent -->
<g id="node1" class="node">
<title>CustomerEditComponent</title>
<polygon fill="#ffffb3" stroke="black" points="1094.6,-122 935.4,-122 935.4,-86 1094.6,-86 1094.6,-122"/>
<text text-anchor="middle" x="1015" y="-99.8" font-family="Times,serif" font-size="14.00">CustomerEditComponent</text>
</g>
<!-- CustomerModule -->
<g id="node6" class="node">
<title>CustomerModule</title>
<polygon fill="#8dd3c7" stroke="black" points="620.99,-187 617.99,-191 596.99,-191 593.99,-187 507.01,-187 507.01,-151 620.99,-151 620.99,-187"/>
<text text-anchor="middle" x="564" y="-164.8" font-family="Times,serif" font-size="14.00">CustomerModule</text>
</g>
<!-- CustomerEditComponent&#45;&gt;CustomerModule -->
<g id="edge1" class="edge">
<title>CustomerEditComponent&#45;&gt;CustomerModule</title>
<path fill="none" stroke="black" d="M1015,-122.28C1015,-143.32 1015,-175 1015,-175 1015,-175 631.12,-175 631.12,-175"/>
<polygon fill="black" stroke="black" points="631.12,-171.5 621.12,-175 631.12,-178.5 631.12,-171.5"/>
</g>
<!-- CustomerIndexComponent -->
<g id="node2" class="node">
<title>CustomerIndexComponent</title>
<polygon fill="#ffffb3" stroke="black" points="917.65,-122 750.35,-122 750.35,-86 917.65,-86 917.65,-122"/>
<text text-anchor="middle" x="834" y="-99.8" font-family="Times,serif" font-size="14.00">CustomerIndexComponent</text>
</g>
<!-- CustomerIndexComponent&#45;&gt;CustomerModule -->
<g id="edge2" class="edge">
<title>CustomerIndexComponent&#45;&gt;CustomerModule</title>
<path fill="none" stroke="black" d="M834,-122.02C834,-139.37 834,-163 834,-163 834,-163 631.26,-163 631.26,-163"/>
<polygon fill="black" stroke="black" points="631.26,-159.5 621.26,-163 631.26,-166.5 631.26,-159.5"/>
</g>
<!-- CustomerListComponent -->
<g id="node3" class="node">
<title>CustomerListComponent</title>
<polygon fill="#ffffb3" stroke="black" points="731.55,-122 574.45,-122 574.45,-86 731.55,-86 731.55,-122"/>
<text text-anchor="middle" x="653" y="-99.8" font-family="Times,serif" font-size="14.00">CustomerListComponent</text>
</g>
<!-- CustomerListComponent&#45;&gt;CustomerModule -->
<g id="edge3" class="edge">
<title>CustomerListComponent&#45;&gt;CustomerModule</title>
<path fill="none" stroke="black" d="M597.61,-122.11C597.61,-122.11 597.61,-140.99 597.61,-140.99"/>
<polygon fill="black" stroke="black" points="594.11,-140.99 597.61,-150.99 601.11,-140.99 594.11,-140.99"/>
</g>
<!-- CustomerNewComponent -->
<g id="node4" class="node">
<title>CustomerNewComponent</title>
<polygon fill="#ffffb3" stroke="black" points="556.2,-122 393.8,-122 393.8,-86 556.2,-86 556.2,-122"/>
<text text-anchor="middle" x="475" y="-99.8" font-family="Times,serif" font-size="14.00">CustomerNewComponent</text>
</g>
<!-- CustomerNewComponent&#45;&gt;CustomerModule -->
<g id="edge4" class="edge">
<title>CustomerNewComponent&#45;&gt;CustomerModule</title>
<path fill="none" stroke="black" d="M531.55,-122.11C531.55,-122.11 531.55,-140.99 531.55,-140.99"/>
<polygon fill="black" stroke="black" points="528.05,-140.99 531.55,-150.99 535.05,-140.99 528.05,-140.99"/>
</g>
<!-- CustomerTableComponent -->
<g id="node5" class="node">
<title>CustomerTableComponent</title>
<polygon fill="#ffffb3" stroke="black" points="375.64,-122 208.36,-122 208.36,-86 375.64,-86 375.64,-122"/>
<text text-anchor="middle" x="292" y="-99.8" font-family="Times,serif" font-size="14.00">CustomerTableComponent</text>
</g>
<!-- CustomerTableComponent&#45;&gt;CustomerModule -->
<g id="edge5" class="edge">
<title>CustomerTableComponent&#45;&gt;CustomerModule</title>
<path fill="none" stroke="black" d="M292,-122.02C292,-139.37 292,-163 292,-163 292,-163 496.98,-163 496.98,-163"/>
<polygon fill="black" stroke="black" points="496.98,-166.5 506.98,-163 496.98,-159.5 496.98,-166.5"/>
</g>
<!-- CustomerRoutingModule -->
<g id="node7" class="node">
<title>CustomerRoutingModule</title>
<polygon fill="#8dd3c7" stroke="black" points="183.61,-122 180.61,-126 159.61,-126 156.61,-122 24.39,-122 24.39,-86 183.61,-86 183.61,-122"/>
<text text-anchor="middle" x="104" y="-99.8" font-family="Times,serif" font-size="14.00">CustomerRoutingModule</text>
</g>
<!-- CustomerRoutingModule&#45;&gt;CustomerModule -->
<g id="edge6" class="edge">
<title>CustomerRoutingModule&#45;&gt;CustomerModule</title>
<path fill="none" stroke="black" d="M104,-122.28C104,-143.32 104,-175 104,-175 104,-175 496.67,-175 496.67,-175"/>
<polygon fill="black" stroke="black" points="496.67,-178.5 506.67,-175 496.67,-171.5 496.67,-178.5"/>
</g>
</g>
</svg>
